<mxfile host="65bd71144e">
    <diagram id="S3u-OM8DW-YHULPLSOBf" name="第 1 页">
        <mxGraphModel dx="653" dy="444" grid="1" gridSize="10" guides="1" tooltips="1" connect="1" arrows="1" fold="1" page="1" pageScale="1" pageWidth="827" pageHeight="1169" math="0" shadow="0">
            <root>
                <mxCell id="0"/>
                <mxCell id="1" parent="0"/>
                <mxCell id="2" value="&lt;div style=&quot;font-family: Menlo, Monaco, &amp;quot;Courier New&amp;quot;, monospace; line-height: 18px;&quot;&gt;&lt;span style=&quot;&quot;&gt;Compoment&lt;/span&gt;&lt;/div&gt;" style="rounded=1;whiteSpace=wrap;html=1;fillColor=#dae8fc;strokeColor=#6c8ebf;fontColor=#0000FF;labelBackgroundColor=none;" vertex="1" parent="1">
                    <mxGeometry x="330" y="50" width="120" height="60" as="geometry"/>
                </mxCell>
                <mxCell id="60" value="&lt;div style=&quot;font-family: Menlo, Monaco, &amp;quot;Courier New&amp;quot;, monospace; line-height: 18px;&quot;&gt;Expression&lt;/div&gt;" style="rounded=1;whiteSpace=wrap;html=1;labelBackgroundColor=none;fillColor=#dae8fc;strokeColor=#6c8ebf;fontColor=#0000FF;movable=1;resizable=1;rotatable=1;deletable=1;editable=1;connectable=1;" vertex="1" parent="1">
                    <mxGeometry x="521" y="680" width="120" height="60" as="geometry"/>
                </mxCell>
                <mxCell id="61" value="&lt;div style=&quot;font-family: Menlo, Monaco, &amp;quot;Courier New&amp;quot;, monospace; line-height: 18px;&quot;&gt;Expression&lt;/div&gt;" style="rounded=1;whiteSpace=wrap;html=1;labelBackgroundColor=none;fillColor=#dae8fc;strokeColor=#6c8ebf;fontColor=#0000FF;movable=1;resizable=1;rotatable=1;deletable=1;editable=1;connectable=1;" vertex="1" parent="1">
                    <mxGeometry x="531" y="690" width="120" height="60" as="geometry"/>
                </mxCell>
                <mxCell id="62" value="&lt;div style=&quot;font-family: Menlo, Monaco, &amp;quot;Courier New&amp;quot;, monospace; line-height: 18px;&quot;&gt;Expression&lt;/div&gt;" style="rounded=1;whiteSpace=wrap;html=1;labelBackgroundColor=none;fillColor=#dae8fc;strokeColor=#6c8ebf;fontColor=#0000FF;movable=1;resizable=1;rotatable=1;deletable=1;editable=1;connectable=1;" vertex="1" parent="1">
                    <mxGeometry x="541" y="700" width="120" height="60" as="geometry"/>
                </mxCell>
                <mxCell id="73" value="" style="group" vertex="1" connectable="0" parent="1">
                    <mxGeometry x="326" y="157" width="140" height="80" as="geometry"/>
                </mxCell>
                <mxCell id="3" value="&lt;div style=&quot;font-family: Menlo, Monaco, &amp;quot;Courier New&amp;quot;, monospace; line-height: 18px;&quot;&gt;&lt;span style=&quot;&quot;&gt;Library&lt;/span&gt;&lt;/div&gt;" style="rounded=1;whiteSpace=wrap;html=1;fillColor=#dae8fc;strokeColor=#6c8ebf;fontColor=#0000FF;labelBackgroundColor=none;movable=1;resizable=1;rotatable=1;deletable=1;editable=1;connectable=1;" vertex="1" parent="73">
                    <mxGeometry width="120" height="60" as="geometry"/>
                </mxCell>
                <mxCell id="16" value="&lt;div style=&quot;font-family: Menlo, Monaco, &amp;quot;Courier New&amp;quot;, monospace; line-height: 18px;&quot;&gt;&lt;span style=&quot;&quot;&gt;Library&lt;/span&gt;&lt;/div&gt;" style="rounded=1;whiteSpace=wrap;html=1;fillColor=#dae8fc;strokeColor=#6c8ebf;fontColor=#0000FF;labelBackgroundColor=none;movable=1;resizable=1;rotatable=1;deletable=1;editable=1;connectable=1;" vertex="1" parent="73">
                    <mxGeometry x="10" y="10" width="120" height="60" as="geometry"/>
                </mxCell>
                <mxCell id="17" value="&lt;div style=&quot;font-family: Menlo, Monaco, &amp;quot;Courier New&amp;quot;, monospace; line-height: 18px;&quot;&gt;&lt;span style=&quot;&quot;&gt;Library&lt;/span&gt;&lt;/div&gt;" style="rounded=1;whiteSpace=wrap;html=1;fillColor=#dae8fc;strokeColor=#6c8ebf;fontColor=#0000FF;labelBackgroundColor=none;movable=1;resizable=1;rotatable=1;deletable=1;editable=1;connectable=1;" vertex="1" parent="73">
                    <mxGeometry x="20" y="20" width="120" height="60" as="geometry"/>
                </mxCell>
                <mxCell id="75" value="" style="group" vertex="1" connectable="0" parent="1">
                    <mxGeometry x="158" y="275" width="140" height="80" as="geometry"/>
                </mxCell>
                <mxCell id="25" value="&lt;div style=&quot;color: rgb(0, 0, 0); background-color: rgb(255, 255, 255); font-family: Menlo, Monaco, &amp;quot;Courier New&amp;quot;, monospace; line-height: 18px;&quot;&gt;&lt;span style=&quot;color: #267f99;&quot;&gt;Procedure&lt;/span&gt;&lt;/div&gt;" style="rounded=1;whiteSpace=wrap;html=1;labelBackgroundColor=none;fillColor=#dae8fc;strokeColor=#6c8ebf;fontColor=#0000FF;movable=1;resizable=1;rotatable=1;deletable=1;editable=1;connectable=1;container=0;" vertex="1" parent="75">
                    <mxGeometry width="120" height="60" as="geometry"/>
                </mxCell>
                <mxCell id="27" value="&lt;div style=&quot;color: rgb(0, 0, 0); background-color: rgb(255, 255, 255); font-family: Menlo, Monaco, &amp;quot;Courier New&amp;quot;, monospace; line-height: 18px;&quot;&gt;&lt;span style=&quot;color: #267f99;&quot;&gt;Procedure&lt;/span&gt;&lt;/div&gt;" style="rounded=1;whiteSpace=wrap;html=1;labelBackgroundColor=none;fillColor=#dae8fc;strokeColor=#6c8ebf;fontColor=#0000FF;movable=1;resizable=1;rotatable=1;deletable=1;editable=1;connectable=1;container=0;" vertex="1" parent="75">
                    <mxGeometry x="10" y="10" width="120" height="60" as="geometry"/>
                </mxCell>
                <mxCell id="28" value="&lt;div style=&quot;font-family: Menlo, Monaco, &amp;quot;Courier New&amp;quot;, monospace; line-height: 18px;&quot;&gt;Procedure&lt;/div&gt;" style="rounded=1;whiteSpace=wrap;html=1;labelBackgroundColor=none;fillColor=#dae8fc;strokeColor=#6c8ebf;fontColor=#0000FF;movable=1;resizable=1;rotatable=1;deletable=1;editable=1;connectable=1;container=0;" vertex="1" parent="75">
                    <mxGeometry x="20" y="20" width="120" height="60" as="geometry"/>
                </mxCell>
                <mxCell id="76" value="" style="group" vertex="1" connectable="0" parent="1">
                    <mxGeometry x="520" y="270" width="140" height="80" as="geometry"/>
                </mxCell>
                <mxCell id="33" value="" style="rounded=1;whiteSpace=wrap;html=1;labelBackgroundColor=none;fillColor=#dae8fc;strokeColor=#6c8ebf;" vertex="1" parent="76">
                    <mxGeometry width="120" height="60" as="geometry"/>
                </mxCell>
                <mxCell id="34" value="" style="rounded=1;whiteSpace=wrap;html=1;labelBackgroundColor=none;fillColor=#dae8fc;strokeColor=#6c8ebf;" vertex="1" parent="76">
                    <mxGeometry x="10" y="10" width="120" height="60" as="geometry"/>
                </mxCell>
                <mxCell id="35" value="Field" style="rounded=1;whiteSpace=wrap;html=1;labelBackgroundColor=none;fillColor=#dae8fc;strokeColor=#6c8ebf;fontColor=#0000FF;" vertex="1" parent="76">
                    <mxGeometry x="20" y="20" width="120" height="60" as="geometry"/>
                </mxCell>
                <mxCell id="77" value="" style="group;movable=1;resizable=1;rotatable=1;deletable=1;editable=1;connectable=1;" vertex="1" connectable="0" parent="1">
                    <mxGeometry x="330" y="270" width="150" height="90" as="geometry"/>
                </mxCell>
                <mxCell id="39" value="" style="rounded=1;whiteSpace=wrap;html=1;labelBackgroundColor=none;fillColor=#dae8fc;strokeColor=#6c8ebf;fontColor=#0000FF;movable=1;resizable=1;rotatable=1;deletable=1;editable=1;connectable=1;" vertex="1" parent="77">
                    <mxGeometry width="120" height="60" as="geometry"/>
                </mxCell>
                <mxCell id="40" value="" style="rounded=1;whiteSpace=wrap;html=1;labelBackgroundColor=none;fillColor=#dae8fc;strokeColor=#6c8ebf;fontColor=#0000FF;movable=1;resizable=1;rotatable=1;deletable=1;editable=1;connectable=1;" vertex="1" parent="77">
                    <mxGeometry x="10" y="10" width="120" height="60" as="geometry"/>
                </mxCell>
                <mxCell id="41" value="Class" style="rounded=1;whiteSpace=wrap;html=1;labelBackgroundColor=none;fillColor=#dae8fc;strokeColor=#6c8ebf;fontColor=#0000FF;movable=1;resizable=1;rotatable=1;deletable=1;editable=1;connectable=1;" vertex="1" parent="77">
                    <mxGeometry x="20" y="20" width="120" height="60" as="geometry"/>
                </mxCell>
                <mxCell id="42" value="Class" style="rounded=1;whiteSpace=wrap;html=1;labelBackgroundColor=none;fillColor=#dae8fc;strokeColor=#6c8ebf;fontColor=#0000FF;movable=1;resizable=1;rotatable=1;deletable=1;editable=1;connectable=1;" vertex="1" parent="77">
                    <mxGeometry x="30" y="30" width="120" height="60" as="geometry"/>
                </mxCell>
                <mxCell id="79" value="" style="group" vertex="1" connectable="0" parent="1">
                    <mxGeometry x="335" y="410" width="140" height="80" as="geometry"/>
                </mxCell>
                <mxCell id="43" value="Field" style="rounded=1;whiteSpace=wrap;html=1;labelBackgroundColor=none;fillColor=#dae8fc;strokeColor=#6c8ebf;fontColor=#0000FF;" vertex="1" parent="79">
                    <mxGeometry width="120" height="60" as="geometry"/>
                </mxCell>
                <mxCell id="44" value="Field" style="rounded=1;whiteSpace=wrap;html=1;labelBackgroundColor=none;fillColor=#dae8fc;strokeColor=#6c8ebf;fontColor=#0000FF;" vertex="1" parent="79">
                    <mxGeometry x="10" y="10" width="120" height="60" as="geometry"/>
                </mxCell>
                <mxCell id="45" value="Field" style="rounded=1;whiteSpace=wrap;html=1;labelBackgroundColor=none;fillColor=#dae8fc;strokeColor=#6c8ebf;fontColor=#0000FF;" vertex="1" parent="79">
                    <mxGeometry x="20" y="20" width="120" height="60" as="geometry"/>
                </mxCell>
                <mxCell id="80" value="" style="group" vertex="1" connectable="0" parent="1">
                    <mxGeometry x="521" y="410" width="140" height="80" as="geometry"/>
                </mxCell>
                <mxCell id="50" value="&lt;div style=&quot;font-family: Menlo, Monaco, &amp;quot;Courier New&amp;quot;, monospace; line-height: 18px;&quot;&gt;Procedure&lt;/div&gt;" style="rounded=1;whiteSpace=wrap;html=1;labelBackgroundColor=none;fillColor=#dae8fc;strokeColor=#6c8ebf;fontColor=#0000FF;movable=1;resizable=1;rotatable=1;deletable=1;editable=1;connectable=1;" vertex="1" parent="80">
                    <mxGeometry width="120" height="60" as="geometry"/>
                </mxCell>
                <mxCell id="51" value="&lt;div style=&quot;font-family: Menlo, Monaco, &amp;quot;Courier New&amp;quot;, monospace; line-height: 18px;&quot;&gt;Procedure&lt;/div&gt;" style="rounded=1;whiteSpace=wrap;html=1;labelBackgroundColor=none;fillColor=#dae8fc;strokeColor=#6c8ebf;fontColor=#0000FF;movable=1;resizable=1;rotatable=1;deletable=1;editable=1;connectable=1;" vertex="1" parent="80">
                    <mxGeometry x="10" y="10" width="120" height="60" as="geometry"/>
                </mxCell>
                <mxCell id="52" value="&lt;div style=&quot;font-family: Menlo, Monaco, &amp;quot;Courier New&amp;quot;, monospace; line-height: 18px;&quot;&gt;Procedure&lt;/div&gt;" style="rounded=1;whiteSpace=wrap;html=1;labelBackgroundColor=none;fillColor=#dae8fc;strokeColor=#6c8ebf;fontColor=#0000FF;movable=1;resizable=1;rotatable=1;deletable=1;editable=1;connectable=1;" vertex="1" parent="80">
                    <mxGeometry x="20" y="20" width="120" height="60" as="geometry"/>
                </mxCell>
                <mxCell id="81" value="" style="group" vertex="1" connectable="0" parent="1">
                    <mxGeometry x="707" y="411" width="140" height="80" as="geometry"/>
                </mxCell>
                <mxCell id="46" value="&lt;div style=&quot;font-family: Menlo, Monaco, &amp;quot;Courier New&amp;quot;, monospace; line-height: 18px;&quot;&gt;&lt;span style=&quot;&quot;&gt;Constructor&lt;/span&gt;&lt;/div&gt;" style="rounded=1;whiteSpace=wrap;html=1;labelBackgroundColor=none;fillColor=#dae8fc;strokeColor=#6c8ebf;fontColor=#0000FF;" vertex="1" parent="81">
                    <mxGeometry width="120" height="60" as="geometry"/>
                </mxCell>
                <mxCell id="53" value="&lt;div style=&quot;font-family: Menlo, Monaco, &amp;quot;Courier New&amp;quot;, monospace; line-height: 18px;&quot;&gt;&lt;span style=&quot;&quot;&gt;Constructor&lt;/span&gt;&lt;/div&gt;" style="rounded=1;whiteSpace=wrap;html=1;labelBackgroundColor=none;fillColor=#dae8fc;strokeColor=#6c8ebf;fontColor=#0000FF;" vertex="1" parent="81">
                    <mxGeometry x="10" y="10" width="120" height="60" as="geometry"/>
                </mxCell>
                <mxCell id="54" value="&lt;div style=&quot;font-family: Menlo, Monaco, &amp;quot;Courier New&amp;quot;, monospace; line-height: 18px;&quot;&gt;&lt;span style=&quot;&quot;&gt;Constructor&lt;/span&gt;&lt;/div&gt;" style="rounded=1;whiteSpace=wrap;html=1;labelBackgroundColor=none;fillColor=#dae8fc;strokeColor=#6c8ebf;fontColor=#0000FF;" vertex="1" parent="81">
                    <mxGeometry x="20" y="20" width="120" height="60" as="geometry"/>
                </mxCell>
                <mxCell id="82" value="" style="group" vertex="1" connectable="0" parent="1">
                    <mxGeometry x="521" y="545" width="140" height="80" as="geometry"/>
                </mxCell>
                <mxCell id="55" value="&lt;div style=&quot;font-family: Menlo, Monaco, &amp;quot;Courier New&amp;quot;, monospace; line-height: 18px;&quot;&gt;Statement&lt;/div&gt;" style="rounded=1;whiteSpace=wrap;html=1;labelBackgroundColor=none;fillColor=#dae8fc;strokeColor=#6c8ebf;fontColor=#0000FF;movable=1;resizable=1;rotatable=1;deletable=1;editable=1;connectable=1;" vertex="1" parent="82">
                    <mxGeometry width="120" height="60" as="geometry"/>
                </mxCell>
                <mxCell id="56" value="&lt;div style=&quot;font-family: Menlo, Monaco, &amp;quot;Courier New&amp;quot;, monospace; line-height: 18px;&quot;&gt;Statement&lt;/div&gt;" style="rounded=1;whiteSpace=wrap;html=1;labelBackgroundColor=none;fillColor=#dae8fc;strokeColor=#6c8ebf;fontColor=#0000FF;movable=1;resizable=1;rotatable=1;deletable=1;editable=1;connectable=1;" vertex="1" parent="82">
                    <mxGeometry x="10" y="10" width="120" height="60" as="geometry"/>
                </mxCell>
                <mxCell id="57" value="&lt;div style=&quot;font-family: Menlo, Monaco, &amp;quot;Courier New&amp;quot;, monospace; line-height: 18px;&quot;&gt;Statement&lt;/div&gt;" style="rounded=1;whiteSpace=wrap;html=1;labelBackgroundColor=none;fillColor=#dae8fc;strokeColor=#6c8ebf;fontColor=#0000FF;movable=1;resizable=1;rotatable=1;deletable=1;editable=1;connectable=1;" vertex="1" parent="82">
                    <mxGeometry x="20" y="20" width="120" height="60" as="geometry"/>
                </mxCell>
                <mxCell id="58" style="edgeStyle=none;html=1;entryX=1;entryY=0.25;entryDx=0;entryDy=0;fontColor=#0000FF;" edge="1" parent="82" source="56" target="57">
                    <mxGeometry relative="1" as="geometry"/>
                </mxCell>
            </root>
        </mxGraphModel>
    </diagram>
    <diagram id="jO2dMn3DWjY-6GfMLIXi" name="第 2 页">
        <mxGraphModel dx="653" dy="444" grid="0" gridSize="10" guides="0" tooltips="1" connect="1" arrows="1" fold="1" page="1" pageScale="1" pageWidth="827" pageHeight="1169" math="0" shadow="0">
            <root>
                <mxCell id="0"/>
                <mxCell id="1" parent="0"/>
                <mxCell id="j2aOFncPkLITPMFa66HH-1" value="Compoment" style="ellipse" vertex="1" parent="1">
                    <mxGeometry x="100" y="321" width="80" height="30" as="geometry"/>
                </mxCell>
                <mxCell id="j2aOFncPkLITPMFa66HH-2" value="LIbrary" style="rounded=1;" vertex="1" parent="1">
                    <mxGeometry x="230" y="321" width="80" height="30" as="geometry"/>
                </mxCell>
                <mxCell id="j2aOFncPkLITPMFa66HH-3" value="" style="edgeStyle=elbowEdgeStyle;elbow=horizontal;" edge="1" source="j2aOFncPkLITPMFa66HH-1" target="j2aOFncPkLITPMFa66HH-2" parent="1">
                    <mxGeometry relative="1" as="geometry"/>
                </mxCell>
                <mxCell id="j2aOFncPkLITPMFa66HH-4" value="Field" style="rounded=1;" vertex="1" parent="1">
                    <mxGeometry x="360" y="195" width="80" height="30" as="geometry"/>
                </mxCell>
                <mxCell id="j2aOFncPkLITPMFa66HH-5" value="" style="edgeStyle=elbowEdgeStyle;elbow=horizontal;" edge="1" source="j2aOFncPkLITPMFa66HH-2" target="j2aOFncPkLITPMFa66HH-4" parent="1">
                    <mxGeometry relative="1" as="geometry"/>
                </mxCell>
                <mxCell id="j2aOFncPkLITPMFa66HH-6" value="Class" style="rounded=1;" vertex="1" parent="1">
                    <mxGeometry x="360" y="321" width="80" height="30" as="geometry"/>
                </mxCell>
                <mxCell id="j2aOFncPkLITPMFa66HH-7" value="" style="edgeStyle=elbowEdgeStyle;elbow=horizontal;" edge="1" source="j2aOFncPkLITPMFa66HH-2" target="j2aOFncPkLITPMFa66HH-6" parent="1">
                    <mxGeometry relative="1" as="geometry"/>
                </mxCell>
                <mxCell id="j2aOFncPkLITPMFa66HH-8" value="Procedure" style="rounded=1;" vertex="1" parent="1">
                    <mxGeometry x="360" y="447" width="80" height="30" as="geometry"/>
                </mxCell>
                <mxCell id="j2aOFncPkLITPMFa66HH-9" value="" style="edgeStyle=elbowEdgeStyle;elbow=horizontal;" edge="1" source="j2aOFncPkLITPMFa66HH-2" target="j2aOFncPkLITPMFa66HH-8" parent="1">
                    <mxGeometry relative="1" as="geometry"/>
                </mxCell>
                <mxCell id="j2aOFncPkLITPMFa66HH-10" value="Field" style="rounded=1;" vertex="1" parent="1">
                    <mxGeometry x="490" y="251" width="80" height="30" as="geometry"/>
                </mxCell>
                <mxCell id="j2aOFncPkLITPMFa66HH-11" value="" style="edgeStyle=elbowEdgeStyle;elbow=horizontal;" edge="1" source="j2aOFncPkLITPMFa66HH-6" target="j2aOFncPkLITPMFa66HH-10" parent="1">
                    <mxGeometry relative="1" as="geometry"/>
                </mxCell>
                <mxCell id="j2aOFncPkLITPMFa66HH-12" value="Constructor" style="rounded=1;" vertex="1" parent="1">
                    <mxGeometry x="490" y="321" width="80" height="30" as="geometry"/>
                </mxCell>
                <mxCell id="j2aOFncPkLITPMFa66HH-13" value="" style="edgeStyle=elbowEdgeStyle;elbow=horizontal;" edge="1" source="j2aOFncPkLITPMFa66HH-6" target="j2aOFncPkLITPMFa66HH-12" parent="1">
                    <mxGeometry relative="1" as="geometry"/>
                </mxCell>
                <mxCell id="j2aOFncPkLITPMFa66HH-14" value="Procedure" style="rounded=1;" vertex="1" parent="1">
                    <mxGeometry x="490" y="391" width="80" height="30" as="geometry"/>
                </mxCell>
                <mxCell id="j2aOFncPkLITPMFa66HH-15" value="" style="edgeStyle=elbowEdgeStyle;elbow=horizontal;" edge="1" source="j2aOFncPkLITPMFa66HH-6" target="j2aOFncPkLITPMFa66HH-14" parent="1">
                    <mxGeometry relative="1" as="geometry"/>
                </mxCell>
                <mxCell id="j2aOFncPkLITPMFa66HH-16" value="Field" style="rounded=1;" vertex="1" parent="1">
                    <mxGeometry x="370" y="205" width="80" height="30" as="geometry"/>
                </mxCell>
                <mxCell id="j2aOFncPkLITPMFa66HH-17" value="Field" style="rounded=1;" vertex="1" parent="1">
                    <mxGeometry x="380" y="215" width="80" height="30" as="geometry"/>
                </mxCell>
                <mxCell id="j2aOFncPkLITPMFa66HH-18" value="LIbrary" style="rounded=1;" vertex="1" parent="1">
                    <mxGeometry x="240" y="331" width="80" height="30" as="geometry"/>
                </mxCell>
                <mxCell id="j2aOFncPkLITPMFa66HH-19" value="LIbrary" style="rounded=1;" vertex="1" parent="1">
                    <mxGeometry x="250" y="341" width="80" height="30" as="geometry"/>
                </mxCell>
                <mxCell id="j2aOFncPkLITPMFa66HH-20" value="Class" style="rounded=1;" vertex="1" parent="1">
                    <mxGeometry x="370" y="331" width="80" height="30" as="geometry"/>
                </mxCell>
                <mxCell id="j2aOFncPkLITPMFa66HH-21" value="Class" style="rounded=1;" vertex="1" parent="1">
                    <mxGeometry x="380" y="341" width="80" height="30" as="geometry"/>
                </mxCell>
                <mxCell id="j2aOFncPkLITPMFa66HH-22" value="Procedure" style="rounded=1;" vertex="1" parent="1">
                    <mxGeometry x="370" y="457" width="80" height="30" as="geometry"/>
                </mxCell>
                <mxCell id="j2aOFncPkLITPMFa66HH-23" value="Procedure" style="rounded=1;" vertex="1" parent="1">
                    <mxGeometry x="380" y="467" width="80" height="30" as="geometry"/>
                </mxCell>
                <mxCell id="j2aOFncPkLITPMFa66HH-24" value="Field" style="rounded=1;" vertex="1" parent="1">
                    <mxGeometry x="500" y="261" width="80" height="30" as="geometry"/>
                </mxCell>
                <mxCell id="j2aOFncPkLITPMFa66HH-25" value="Field" style="rounded=1;" vertex="1" parent="1">
                    <mxGeometry x="510" y="271" width="80" height="30" as="geometry"/>
                </mxCell>
                <mxCell id="j2aOFncPkLITPMFa66HH-26" value="Constructor" style="rounded=1;" vertex="1" parent="1">
                    <mxGeometry x="500" y="331" width="80" height="30" as="geometry"/>
                </mxCell>
                <mxCell id="j2aOFncPkLITPMFa66HH-27" value="Constructor" style="rounded=1;" vertex="1" parent="1">
                    <mxGeometry x="510" y="341" width="80" height="30" as="geometry"/>
                </mxCell>
                <mxCell id="j2aOFncPkLITPMFa66HH-28" value="Procedure" style="rounded=1;" vertex="1" parent="1">
                    <mxGeometry x="500" y="401" width="80" height="30" as="geometry"/>
                </mxCell>
                <mxCell id="j2aOFncPkLITPMFa66HH-29" value="Procedure" style="rounded=1;" vertex="1" parent="1">
                    <mxGeometry x="510" y="411" width="80" height="30" as="geometry"/>
                </mxCell>
            </root>
        </mxGraphModel>
    </diagram>
    <diagram id="poyl5tbWWGR0qUlk_YM3" name="第 3 页">
        <mxGraphModel dx="639" dy="430" grid="1" gridSize="10" guides="1" tooltips="1" connect="1" arrows="1" fold="1" page="1" pageScale="1" pageWidth="827" pageHeight="1169" math="0" shadow="0">
            <root>
                <mxCell id="0"/>
                <mxCell id="1" parent="0"/>
                <mxCell id="4k2S70uj_1QP5IkEwfdC-1" value="Procedure" style="ellipse" vertex="1" parent="1">
                    <mxGeometry x="300" y="60" width="80" height="30" as="geometry"/>
                </mxCell>
                <mxCell id="4k2S70uj_1QP5IkEwfdC-2" value="FunctionNode" style="rounded=1;" vertex="1" parent="1">
                    <mxGeometry x="300" y="140" width="80" height="30" as="geometry"/>
                </mxCell>
                <mxCell id="4k2S70uj_1QP5IkEwfdC-3" value="" style="edgeStyle=elbowEdgeStyle;elbow=vertical;" edge="1" source="4k2S70uj_1QP5IkEwfdC-1" target="4k2S70uj_1QP5IkEwfdC-2" parent="1">
                    <mxGeometry relative="1" as="geometry"/>
                </mxCell>
                <mxCell id="4k2S70uj_1QP5IkEwfdC-4" value="Argments" style="rounded=1;" vertex="1" parent="1">
                    <mxGeometry x="240" y="220" width="80" height="30" as="geometry"/>
                </mxCell>
                <mxCell id="4k2S70uj_1QP5IkEwfdC-5" value="" style="edgeStyle=elbowEdgeStyle;elbow=vertical;" edge="1" source="4k2S70uj_1QP5IkEwfdC-2" target="4k2S70uj_1QP5IkEwfdC-4" parent="1">
                    <mxGeometry relative="1" as="geometry"/>
                </mxCell>
                <mxCell id="4k2S70uj_1QP5IkEwfdC-6" value="Block" style="rounded=1;" vertex="1" parent="1">
                    <mxGeometry x="360" y="220" width="80" height="30" as="geometry"/>
                </mxCell>
                <mxCell id="4k2S70uj_1QP5IkEwfdC-7" value="" style="edgeStyle=elbowEdgeStyle;elbow=vertical;" edge="1" source="4k2S70uj_1QP5IkEwfdC-2" target="4k2S70uj_1QP5IkEwfdC-6" parent="1">
                    <mxGeometry relative="1" as="geometry"/>
                </mxCell>
                <mxCell id="4k2S70uj_1QP5IkEwfdC-8" value="Statement" style="rounded=1;" vertex="1" parent="1">
                    <mxGeometry x="360" y="300" width="80" height="30" as="geometry"/>
                </mxCell>
                <mxCell id="4k2S70uj_1QP5IkEwfdC-9" value="" style="edgeStyle=elbowEdgeStyle;elbow=vertical;" edge="1" source="4k2S70uj_1QP5IkEwfdC-6" target="4k2S70uj_1QP5IkEwfdC-8" parent="1">
                    <mxGeometry relative="1" as="geometry"/>
                </mxCell>
                <mxCell id="4k2S70uj_1QP5IkEwfdC-10" value="Expression" style="rounded=1;" vertex="1" parent="1">
                    <mxGeometry x="360" y="380" width="80" height="30" as="geometry"/>
                </mxCell>
                <mxCell id="4k2S70uj_1QP5IkEwfdC-11" value="" style="edgeStyle=elbowEdgeStyle;elbow=vertical;" edge="1" source="4k2S70uj_1QP5IkEwfdC-8" target="4k2S70uj_1QP5IkEwfdC-10" parent="1">
                    <mxGeometry relative="1" as="geometry"/>
                </mxCell>
                <mxCell id="4k2S70uj_1QP5IkEwfdC-12" value="Statement" style="rounded=1;" vertex="1" parent="1">
                    <mxGeometry x="370" y="310" width="80" height="30" as="geometry"/>
                </mxCell>
                <mxCell id="4k2S70uj_1QP5IkEwfdC-13" value="Statement" style="rounded=1;" vertex="1" parent="1">
                    <mxGeometry x="380" y="320" width="80" height="30" as="geometry"/>
                </mxCell>
                <mxCell id="4k2S70uj_1QP5IkEwfdC-14" value="Expression" style="rounded=1;" vertex="1" parent="1">
                    <mxGeometry x="370" y="390" width="80" height="30" as="geometry"/>
                </mxCell>
                <mxCell id="4k2S70uj_1QP5IkEwfdC-15" value="Expression" style="rounded=1;" vertex="1" parent="1">
                    <mxGeometry x="380" y="400" width="80" height="30" as="geometry"/>
                </mxCell>
            </root>
        </mxGraphModel>
    </diagram>
</mxfile>